# xmcd
#
# Track frame offsets: 
#        150
#        13649
#        27932
#        41204
#        55868
#        72447
#        89598
#        100036
#        117819
#        136124
#        153931
#        170195
#
# Disc length: 2575 seconds
#
# Revision: 3
# Processed by: cddbd v1.5.2PL0 Copyright (c) Steve Scherf et al.
# Submitted via: ExactAudioCopyFreeDBPlugin 1.0
#
DISCID=9d0a0d0c
DTITLE=Lack of Afro - Hello Baby
DYEAR=2016
DGENRE=Soul
TTITLE0=Hello Baby
TTITLE1=I Got Rhythm (ft Elliott Cole)
TTITLE2=All My Love (ft Juliette Ashby)
TTITLE3=(Searching For) Peace and Love
TTITLE4=Take You Home (ft Joss Stone)
TTITLE5=Nothing Personal (ft Elliott Cole)
TTITLE6=The Bakery Girl Intermission
TTITLE7=One World (ft Herbal T)
TTITLE8=Fires Glow (ft Emma Noble)
TTITLE9=Magic Together (ft Elliott Cole)
TTITLE10=Walk in the Sun (ft Professor Elemental)
TTITLE11=Now I Feel Good (ft Elliott Cole)
EXTD=
EXTT0=Hello Baby
EXTT1=I Got Rhytm feat. Elliot Cole
EXTT2=All My Love feat. Juliette Ashby
EXTT3=Searching For Peace and Love
EXTT4=Take You Home feat. Joss Stone
EXTT5=Nothing Personal feat. Elliot Cole
EXTT6=The Bakery Girl Intermission
EXTT7=One World feat. HerbalT
EXTT8=Fires Glow feat. Emma Noble
EXTT9=Magic Together feat. Elliot Cole
EXTT10=Walk In The Sun feat. Prof. Elmental
EXTT11=Now I Feel Good feat. Elliot Cole
PLAYORDER=
